<svg width="27" height="28" viewBox="0 0 27 28" fill="none" xmlns="http://www.w3.org/2000/svg">
<path d="M13.5 19.3999C13.2019 19.3999 12.96 19.6418 12.96 19.9399C12.96 20.238 13.2019 20.4799 13.5 20.4799C13.798 20.4799 14.04 20.238 14.04 19.9399C14.04 19.6418 13.798 19.3999 13.5 19.3999Z" fill="#02BDCD"/>
<path d="M13.4999 21.0199C14.0964 21.0199 14.5799 20.5363 14.5799 19.9399C14.5799 19.3434 14.0964 18.8599 13.4999 18.8599C12.9035 18.8599 12.4199 19.3434 12.4199 19.9399C12.4199 20.5363 12.9035 21.0199 13.4999 21.0199Z" fill="#02BDCD"/>
<path d="M13.5 0.5C6.05554 0.5 0 6.55554 0 14C0 21.4445 6.05554 27.5 13.5 27.5C20.9445 27.5 27 21.4445 27 14C27 6.55554 20.9445 0.5 13.5 0.5ZM13.5 26.42C6.6517 26.42 1.08 20.8483 1.08 14C1.08 7.1517 6.6517 1.58 13.5 1.58C20.3483 1.58 25.92 7.1517 25.92 14C25.92 20.8483 20.3483 26.42 13.5 26.42Z" fill="#02BDCD"/>
<path d="M17.2181 10.0785C16.9513 8.55683 15.7018 7.30723 14.1801 7.0394C13.058 6.84286 11.9261 7.14307 11.0697 7.86342C10.2122 8.58488 9.71973 9.64005 9.71973 10.76C9.71973 11.058 9.96167 11.3 10.2597 11.3C10.5578 11.3 10.7997 11.058 10.7997 10.76C10.7997 9.95967 11.1518 9.20583 11.7652 8.69178C12.3873 8.17013 13.1801 7.96061 13.9944 8.10426C15.0765 8.29432 15.9654 9.18426 16.1565 10.2664C16.3617 11.4371 15.8304 12.5604 14.8012 13.1263C13.6477 13.7624 12.9598 14.8607 12.9598 16.16V17.24C12.9598 17.538 13.2017 17.78 13.4998 17.78C13.7978 17.78 14.0398 17.538 14.0376 17.24V16.0649C14.0376 15.2593 14.5182 14.5141 15.3206 14.0713C16.7386 13.2915 17.5011 11.6867 17.2181 10.0785Z" fill="#02BDCD"/>
</svg>
