<svg width="25" height="26" viewBox="0 0 25 26" fill="none" xmlns="http://www.w3.org/2000/svg">
<path fill-rule="evenodd" clip-rule="evenodd" d="M9.731 0.971072C11.1944 -0.287947 13.3558 -0.32687 14.8642 0.878629L23.536 7.75407C24.2737 8.36659 24.7 9.27219 24.7 10.2269V21.5512C24.7 22.7331 24.2262 23.8664 23.3833 24.701C22.5404 25.5357 21.3975 26.003 20.207 26H17.6578C17.2329 26 16.8255 25.8316 16.5261 25.5322C16.2267 25.2328 16.06 24.8272 16.0631 24.4053V20.4303C16.0631 19.943 15.8682 19.4757 15.5211 19.1311C15.174 18.7866 14.7032 18.593 14.2124 18.593H10.476C9.45382 18.593 8.62521 19.4156 8.62521 20.4303V24.4053L8.59029 24.4169C8.58389 25.2931 7.86659 26 6.98397 26H4.49302C2.0116 26 0 24.003 0 21.5396V10.2269C0.022818 9.25682 0.484563 8.34853 1.25712 7.75407L9.731 0.971072ZM2 10.2561C2.01368 9.89995 2.18548 9.56327 2.47679 9.33912L2.49198 9.32743L11.0085 2.51032L11.0354 2.48721C11.7694 1.85573 12.8583 1.83575 13.6156 2.44101L13.6217 2.44582L22.2716 9.30392C22.5457 9.53806 22.7 9.87565 22.7 10.2269V21.5512C22.7 22.197 22.4413 22.8193 21.9761 23.2798C21.5105 23.7409 20.876 24.0017 20.2121 24H18.0631V20.4303C18.0631 19.4078 17.6539 18.4303 16.9301 17.7118C16.2069 16.9938 15.229 16.593 14.2124 16.593H10.476C8.36303 16.593 6.62521 18.2973 6.62521 20.4303V22.9605L6.60081 22.9685L6.59328 24H4.49302C3.10239 24 2 22.8847 2 21.5396V10.2561Z" fill="#626262"/>
</svg>
