<svg width="24" height="31" viewBox="0 0 24 31" fill="none" xmlns="http://www.w3.org/2000/svg">
<path fill-rule="evenodd" clip-rule="evenodd" d="M7.88055 20.2521L7.56055 20.3059C4.59596 20.7936 2.36675 23.452 2.36675 26.6274C2.36675 27.6289 3.14367 28.3781 4.0252 28.3781H19.9389C20.8204 28.3781 21.5973 27.6289 21.5973 26.6258C21.5973 23.452 19.3681 20.7951 16.4035 20.3059L16.0835 20.2521C13.3676 19.8041 10.5965 19.8041 7.88055 20.2521ZM16.4589 17.9752L16.7789 18.029C20.9112 18.7105 23.905 22.3767 23.905 26.6274C23.905 28.8335 22.165 30.6858 19.9389 30.6858H4.0252C1.79907 30.6858 0.059082 28.8335 0.059082 26.6258C0.059082 22.3767 3.0529 18.709 7.18517 18.029L7.50517 17.9752C10.4697 17.4861 13.4944 17.4861 16.4589 17.9752Z" fill="white"/>
<path fill-rule="evenodd" clip-rule="evenodd" d="M11.9819 2.99322C9.10966 2.99322 6.8543 5.22858 6.8543 7.89779C6.8543 10.567 9.10966 12.8008 11.9819 12.8008C14.8542 12.8008 17.1096 10.5655 17.1096 7.89625C17.1096 5.22704 14.8542 2.99322 11.9819 2.99322ZM4.54663 7.89779C4.54663 3.87475 7.91583 0.685547 11.9819 0.685547C16.0481 0.685547 19.4173 3.87475 19.4173 7.89779C19.4173 11.9208 16.0481 15.1085 11.9819 15.1085C7.91583 15.1085 4.54663 11.9193 4.54663 7.89625V7.89779Z" fill="white"/>
</svg>
