<svg width="25" height="26" viewBox="0 0 25 26" fill="none" xmlns="http://www.w3.org/2000/svg">
<path d="M8.62521 24.4053V20.4303C8.62521 19.4156 9.45382 18.593 10.476 18.593H14.2124C14.7032 18.593 15.174 18.7866 15.5211 19.1311C15.8682 19.4757 16.0631 19.943 16.0631 20.4303V24.4053C16.06 24.8272 16.2267 25.2328 16.5261 25.5322C16.8255 25.8316 17.2329 26 17.6578 26H20.207C21.3975 26.003 22.5404 25.5357 23.3833 24.701C24.2262 23.8664 24.7 22.7331 24.7 21.5512V10.2269C24.7 9.27219 24.2737 8.36659 23.536 7.75407L14.8642 0.878629C13.3558 -0.32687 11.1944 -0.287947 9.731 0.971072L1.25712 7.75407C0.484563 8.34853 0.022818 9.25682 0 10.2269V21.5396C0 24.003 2.0116 26 4.49302 26H6.98397C7.86659 26 8.58389 25.2931 8.59029 24.4169L8.62521 24.4053Z" fill="#844B9E"/>
</svg>
